<?xml version="1.0" encoding="UTF-8"?>
<svg id="a" data-name="Capa 1" xmlns="http://www.w3.org/2000/svg" viewBox="0 0 1024 1024">
  <defs>
    <style>
      .b {
        fill: #c3e8bd;
        stroke: #c3e8bd;
        stroke-miterlimit: 10;
        stroke-width: 10px;
      }
    </style>
  </defs>
  <path class="b" d="m612.53,661.73c-4.66-.71-9.34,1.11-12.35,4.74-5.41,6.52-10.92,13.14-16.8,19.53-16.82,18.2-37.79,27.19-62.45,27.42-22.35.23-38.25,9.45-49.78,29.04-32.72,54.61-66.37,108.77-99.55,162.92-3.23,5.07-6.45,11.98-11.29,14.06-6.22,2.53-14.98,3.23-21.2.92-8.07-3-8.3-11.75-4.61-18.9,9.68-19.13,19.82-38.25,30.42-56.92,22.81-40.1,46.32-79.5,68.67-119.83,17.05-30.42,42.17-47.24,76.97-48.39,18.44-.69,28.36-8.66,42.17-23.04,3.45-4.92,5.97-7.98,7.55-9.62.2-.21.39-.44.55-.68,9.36-13.59,13.3-20.27,9.87-35.33-5.53-24.89,8.99-50.24,31.57-62.45,22.58-12.21,50.24-9.22,69.82,7.83,19.59,17.05,27.19,44.71,17.28,69.13-3.92,9.45-3.23,16.36,2.07,24.89,41.71,67.52,83.19,135.27,124.67,203.02,11.06,17.97,26.04,26.5,47.7,25.35,19.03-1.08,38.07-.62,58.08-.36,7.59.1,12.35-8.15,8.48-14.67-136.89-230.43-272.95-459.63-409.41-689.21-3.76-6.33-12.93-6.33-16.7,0-136.95,230.08-273.29,458.95-410.23,689.24-3.82,6.43.75,14.58,8.22,14.68,24.75.33,48.57,1.02,72.07-1.05,9.45-.92,20.51-10.6,26.73-19.36,16.82-23.27,31.8-47.93,47.24-72.13,70.51-110.15,141.03-220.3,211.78-330.45,3.69-5.76,2.77-10.14.92-15.9-8.3-24.2-1.15-51.39,17.97-67.06,19.82-16.36,42.17-20.05,65.68-8.76,23.97,11.75,36.18,31.8,35.49,58.3-.88,36.76-33.51,61.32-73.98,56.62-3.6-.42-7.13,1.2-9.16,4.2-19.88,29.43-40.11,58.89-59.73,88.96-65.21,100.01-129.74,200.48-195.18,300.03-9.22,13.83-21.43,26.04-34.11,36.87-14.98,12.9-33.41,17.74-53.46,17.74-35.26-.46-70.75-1.38-106,.46-26.5,1.38-42.63-24.66-28.34-48.16,27.65-45.63,55.08-91.25,82.27-137.11,117.06-198.18,233.9-396.59,350.73-594.77,2.53-4.38,5.07-8.76,7.6-12.9,25.12-41.02,79.73-41.94,105.54-.92,19.36,30.88,37.1,62.68,55.54,94.25,112.92,192.19,225.6,384.38,338.52,576.56,14.06,23.74,27.19,48.16,42.4,71.21,14.98,22.35,3,54.84-29.96,52.77-32.95-2.07-66.14-1.38-99.09-.23-42.4,1.84-73.74-17.28-95.4-51.39-38.25-59.91-74.66-120.75-111.76-181.13-1.84-3-3.92-5.76-5.3-8.99-6.91-14.52-15.85-20.28-34.34-20.28-7.02,0-11.5-.32-14.4-.76Zm50.88-60.65c.34-18.26-14.8-34.77-32.64-35.47-17.5-.7-34.32,15.45-34.66,33.37-.34,18.62,14.8,35.12,32.64,35.47,18.17.35,34.32-15.45,34.66-33.37Zm-145.05-152.43c16.23,0,31.14-13.56,31.14-31.82,0-24-20.77-33.85-31.18-33.65-14.22,0-31.62,10.01-33.71,32.33-.03.35-.05.72-.05,1.07.12,22.57,16.64,32.07,33.8,32.07Z"/>
</svg>