<?xml version="1.0" encoding="UTF-8"?>
<svg id="a" data-name="Capa 1" xmlns="http://www.w3.org/2000/svg" viewBox="0 0 1024 1024">
  <defs>
    <style>
      .c, .d {
        stroke: #c3e8bd;
        stroke-miterlimit: 10;
      }

      .c, .d, .e {
        fill: #c3e8bd;
      }

      .c, .e {
        font-family: CenturyGothic-Bold, 'Century Gothic';
        font-size: 199.76px;
        font-weight: 700;
        isolation: isolate;
      }

      .d {
        stroke-width: 10px;
      }
    </style>
  </defs>
  <path class="d" d="m573.03,488.1c-3.15-.47-6.22.74-8.3,3.15-3.61,4.35-7.29,8.77-11.24,13.05-11.24,12.18-25.3,18.2-41.76,18.34-14.99.13-25.63,6.29-33.33,19.41-21.88,36.54-44.43,72.81-66.65,109.01-2.14,3.41-4.35,8.03-7.56,9.44-4.15,1.67-10.04,2.14-14.19.6-5.42-2.01-5.55-7.9-3.08-12.65,6.49-12.78,13.25-25.63,20.34-38.08,15.26-26.83,30.98-53.2,45.97-80.17,11.44-20.34,28.24-31.59,51.53-32.39,12.31-.47,19-5.82,28.24-15.39,2.28-3.28,4.02-5.35,5.02-6.42.13-.13.27-.27.4-.47,6.29-9.1,8.9-13.58,6.62-23.62-3.68-16.66,6.02-33.59,21.15-41.76,15.12-8.16,33.59-6.16,46.71,5.22,13.12,11.38,18.2,29.91,11.58,46.24-2.61,6.29-2.14,10.97,1.41,16.66,27.91,45.17,55.68,90.54,83.45,135.84,7.43,12.05,17.4,17.73,31.92,16.93,12.71-.74,25.5-.4,38.88-.27,5.09.07,8.3-5.49,5.69-9.84-91.68-154.05-182.75-307.42-274.03-461.07-2.54-4.22-8.63-4.22-11.18,0-91.68,153.98-182.89,307.09-274.57,461.2-2.54,4.28.47,9.77,5.49,9.84,16.53.2,32.52.67,48.25-.67,6.29-.6,13.72-7.09,17.87-12.98,11.24-15.59,21.28-32.05,31.59-48.25,47.18-73.74,94.36-147.42,141.73-221.17,2.48-3.88,1.87-6.76.6-10.64-5.55-16.19-.8-34.4,12.05-44.9,13.25-10.97,28.24-13.38,43.97-5.89,16.06,7.9,24.22,21.28,23.76,39.01-.6,24.63-22.42,41.02-49.52,37.88-2.41-.27-4.75.8-6.16,2.81-13.32,19.67-26.83,39.42-39.95,59.56-43.63,66.92-86.79,134.17-130.63,200.76-6.16,9.23-14.32,17.4-22.82,24.69-10.04,8.63-22.35,11.84-35.8,11.84-23.62-.33-47.31-.94-70.93.33-17.67,1-28.44-16.46-18.87-32.19,18.54-30.51,36.87-61.1,55.07-91.75,78.36-132.63,156.52-265.4,234.68-398.03,1.67-2.94,3.41-5.89,5.09-8.63,16.8-27.44,53.33-28.04,70.6-.6,12.98,20.68,24.83,41.96,37.14,63.1,75.55,128.62,150.97,257.23,226.52,385.85,9.44,15.86,18.2,32.25,28.37,47.65,10.04,14.99,2.01,36.67-20.08,35.33-22.08-1.41-44.23-.94-66.32-.13-28.37,1.2-49.32-11.58-63.84-34.4-25.63-40.08-49.99-80.84-74.81-121.19-1.2-2.01-2.61-3.88-3.55-6.02-4.62-9.7-10.57-13.58-22.95-13.58-4.62-.07-7.63-.27-9.57-.6Zm34.06-40.55c.2-12.25-9.9-23.29-21.82-23.76-11.71-.47-22.95,10.37-23.22,22.35-.2,12.45,9.9,23.49,21.82,23.76,12.18.2,23.02-10.37,23.22-22.35Zm-97.03-101.98c10.84,0,20.81-9.1,20.81-21.28,0-16.06-13.92-22.69-20.88-22.55-9.5,0-21.15,6.69-22.55,21.61v.74c.07,15.12,11.11,21.48,22.62,21.48Z"/>
  <text class="e" transform="translate(0 927.69) scale(1.03 1)"><tspan x="0" y="0">appscend</tspan></text>
  <text class="c" transform="translate(0 927.69) scale(1.03 1)"><tspan x="0" y="0">appscend</tspan></text>
</svg>