<?xml version="1.0" encoding="UTF-8" standalone="no"?>
<svg
   version="1.1"
   width="612pt"
   height="792pt"
   id="svg1"
   viewBox="0 0 612 792"
   sodipodi:docname="UNLaM.cdr"
   xmlns:inkscape="http://www.inkscape.org/namespaces/inkscape"
   xmlns:sodipodi="http://sodipodi.sourceforge.net/DTD/sodipodi-0.dtd"
   xmlns="http://www.w3.org/2000/svg"
   xmlns:svg="http://www.w3.org/2000/svg">
  <defs
     id="defs1" />
  <sodipodi:namedview
     id="namedview1"
     pagecolor="#ffffff"
     bordercolor="#000000"
     borderopacity="0.25"
     inkscape:showpageshadow="2"
     inkscape:pageopacity="0.0"
     inkscape:pagecheckerboard="0"
     inkscape:deskcolor="#d1d1d1"
     inkscape:document-units="pt" />
  <path
     d="m 283.3376,240.8157 c 47.6516,0 86.2947,38.6431 86.2947,86.2937 0,47.6516 -38.6431,86.2947 -86.2947,86.2947 -47.6506,0 -86.2937,-38.6431 -86.2937,-86.2947 0,-47.6506 38.6431,-86.2937 86.2937,-86.2937 z m -24.8161,85.9809 c 0.307,28.8457 24.4407,52.1475 54.1594,52.1475 10.991,0 21.2127,-3.1908 29.7539,-8.6663 -11.863,15.4782 -30.8244,25.5063 -52.1905,25.5063 -35.9284,0 -65.0654,-28.3491 -65.0654,-63.3067 0,-1.9141 0.0948,-3.8107 0.2669,-5.6808 h -14.6697 c 0,-20.0269 17.3297,-36.2685 38.6988,-36.2685 21.1267,0 38.3019,15.876 38.6891,35.5881 h 19.1871 c -2.0402,-27.5973 -25.0771,-49.3653 -53.1965,-49.3653 -6.4579,0 -12.6471,1.1467 -18.3767,3.2495 8.638,-5.2516 18.7756,-8.2743 29.6209,-8.2743 30.625,0 55.618,24.1171 57.0394,54.3901 h 13.0997 c -1.1115,-35.7553 -31.9476,-64.428 -69.8184,-64.428 -5.5253,0 -10.8972,0.611 -16.053,1.7646 8.1775,-3.1528 17.057,-4.8831 26.3441,-4.8831 38.5365,0 70.1293,29.7607 73.0571,67.5465 h 7.4248 c 0,20.0269 -17.3297,36.2686 -38.6988,36.2686 -21.1267,0 -38.3029,-15.8761 -38.69,-35.5882 z"
     style="fill:#009035;fill-rule:evenodd"
     id="path1" />
</svg>
